<?xml version="1.0" standalone="no"?>
<!DOCTYPE svg PUBLIC "-//W3C//DTD SVG 20010904//EN"
 "http://www.w3.org/TR/2001/REC-SVG-20010904/DTD/svg10.dtd">
<svg version="1.0" xmlns="http://www.w3.org/2000/svg"
 width="250.000000pt" height="250.000000pt" viewBox="0 0 250.000000 250.000000"
 preserveAspectRatio="xMidYMid meet">
<metadata>
Created by potrace 1.15, written by Peter Selinger 2001-2017
</metadata>
<g transform="translate(0.000000,250.000000) scale(0.100000,-0.100000)"
fill="#000000" stroke="none">
<path d="M2305 2447 c-22 -13 -212 -130 -422 -260 -416 -257 -445 -274 -494
-282 -19 -3 -41 -8 -50 -11 -9 -2 -29 0 -44 6 -15 6 -29 9 -32 7 -2 -2 26 -35
61 -72 64 -68 64 -68 110 -63 37 4 103 41 353 193 169 104 363 222 431 263
140 85 194 100 231 63 l21 -21 0 75 c0 67 -3 79 -25 100 -31 32 -86 33 -140 2z"/>
<path d="M2335 2181 c-11 -5 -180 -109 -375 -231 -195 -122 -373 -232 -395
-243 -30 -16 -58 -21 -111 -22 l-72 0 41 -45 c60 -68 78 -80 120 -80 49 0 42
-4 426 233 418 256 422 258 475 216 l26 -20 0 74 c0 91 -16 116 -75 123 -22 2
-49 0 -60 -5z"/>
<path d="M2315 1886 c-27 -14 -135 -78 -238 -143 l-188 -118 -49 -105 c-27
-58 -47 -107 -45 -109 2 -2 123 69 269 158 145 89 279 166 297 171 37 11 65 5
92 -18 16 -14 17 -11 17 57 0 85 -9 105 -51 120 -43 15 -47 14 -104 -13z"/>
<path d="M2020 1425 c-292 -181 -316 -198 -332 -235 -17 -39 -17 -41 4 -76 11
-19 26 -33 33 -30 7 2 147 86 311 187 265 162 305 183 350 187 45 4 53 1 68
-19 15 -23 16 -20 16 59 0 102 -14 122 -88 122 -44 0 -68 -13 -362 -195z"/>
<path d="M2239 1277 c-286 -173 -469 -290 -469 -299 0 -16 54 -108 64 -108 5
0 43 21 85 47 410 250 433 263 472 263 26 0 46 -7 59 -20 l20 -20 0 79 c0 74
-2 81 -26 100 -47 37 -89 28 -205 -42z"/>
<path d="M2325 1048 c-43 -24 -431 -261 -439 -269 -4 -4 6 -34 24 -67 l32 -60
200 120 c221 133 264 148 306 108 l22 -21 0 76 c0 67 -3 79 -25 100 -26 27
-84 33 -120 13z"/>
<path d="M2318 761 c-20 -11 -215 -131 -433 -266 -218 -135 -415 -255 -438
-267 -30 -15 -61 -22 -108 -22 -78 -1 -78 -4 -1 -80 83 -80 73 -84 552 208
222 136 417 254 433 262 47 25 92 26 121 3 l26 -20 0 74 c0 90 -15 116 -75
123 -29 4 -51 -1 -77 -15z"/>
<path d="M1530 565 l-185 -114 -27 -60 c-27 -60 -27 -61 -7 -72 11 -6 34 -7
52 -3 18 3 146 74 284 158 l253 151 -63 23 c-110 42 -102 44 -307 -83z"/>
</g>
</svg>
